<svg width="36" height="24" viewBox="0 0 36 24" fill="none" xmlns="http://www.w3.org/2000/svg">
<g style="mix-blend-mode:multiply">
<rect width="36" height="24" rx="12" fill="#F2F4F7"/>
<path d="M15.0152 6.81818V17H13.474V8.35938H13.4143L10.9782 9.95028V8.47869L13.5187 6.81818H15.0152ZM21.3142 17.169C20.5287 17.1657 19.8575 16.9586 19.3007 16.5476C18.7439 16.1366 18.318 15.5384 18.023 14.7528C17.728 13.9673 17.5805 13.0211 17.5805 11.9141C17.5805 10.8104 17.728 9.86742 18.023 9.08523C18.3213 8.30303 18.7488 7.70644 19.3057 7.29545C19.8658 6.88447 20.5353 6.67898 21.3142 6.67898C22.0931 6.67898 22.7609 6.88613 23.3177 7.30043C23.8746 7.71141 24.3005 8.308 24.5954 9.0902C24.8937 9.86908 25.0429 10.8104 25.0429 11.9141C25.0429 13.0244 24.8954 13.9723 24.6004 14.7578C24.3054 15.54 23.8795 16.1383 23.3227 16.5526C22.7659 16.9635 22.0964 17.169 21.3142 17.169ZM21.3142 15.8416C22.0036 15.8416 22.5422 15.5052 22.93 14.8324C23.3211 14.1596 23.5166 13.1868 23.5166 11.9141C23.5166 11.0689 23.4271 10.3546 23.2481 9.77131C23.0725 9.18466 22.8189 8.74053 22.4875 8.43892C22.1594 8.134 21.7683 7.98153 21.3142 7.98153C20.6281 7.98153 20.0895 8.3196 19.6984 8.99574C19.3073 9.67187 19.1101 10.6446 19.1068 11.9141C19.1068 12.7625 19.1946 13.4801 19.3703 14.0668C19.5493 14.6501 19.8028 15.0926 20.1309 15.3942C20.4591 15.6925 20.8535 15.8416 21.3142 15.8416Z" fill="#344054"/>
</g>
</svg>
